<?xml version="1.0" encoding="UTF-8"?>
<svg xmlns="http://www.w3.org/2000/svg" xmlns:xlink="http://www.w3.org/1999/xlink" width="20pt" height="20pt" viewBox="0 0 20 20" version="1.1">
<g id="surface1">
<path style=" stroke:none;fill-rule:nonzero;fill:rgb(0%,47.843137%,78.823529%);fill-opacity:1;" d="M 0 17.507812 C 0 18.898438 1.121094 20.019531 2.507812 20.019531 L 17.535156 20.019531 C 18.898438 20.019531 20.019531 18.898438 20.019531 17.507812 L 20.019531 2.480469 C 20.019531 1.121094 18.898438 0 17.535156 0 L 2.507812 0 C 1.121094 0 0 1.121094 0 2.480469 Z M 0 17.507812 "/>
<path style=" stroke:none;fill-rule:nonzero;fill:rgb(100%,100%,100%);fill-opacity:1;" d="M 15.746094 11.53125 L 15.746094 11.585938 C 15.746094 11.90625 15.613281 12.089844 15.214844 12.144531 C 13.773438 12.386719 11.90625 12.625 10.0625 12.625 C 8.140625 12.625 6.324219 12.410156 4.859375 12.089844 C 4.457031 12.011719 4.324219 11.851562 4.324219 11.53125 L 4.324219 4.21875 C 4.324219 3.898438 4.457031 3.65625 4.859375 3.65625 L 15.214844 3.710938 C 15.613281 3.710938 15.746094 3.949219 15.746094 4.269531 Z M 14.546875 14.8125 C 14.171875 14.789062 13.878906 14.492188 13.878906 14.148438 C 13.90625 13.800781 14.199219 13.507812 14.546875 13.507812 C 14.894531 13.507812 15.1875 13.800781 15.1875 14.148438 C 15.1875 14.519531 14.894531 14.8125 14.546875 14.8125 M 5.390625 14.8125 C 5.019531 14.789062 4.722656 14.492188 4.722656 14.148438 C 4.75 13.800781 5.042969 13.507812 5.390625 13.507812 C 5.738281 13.507812 6.03125 13.800781 6.03125 14.148438 C 6.03125 14.519531 5.738281 14.8125 5.390625 14.8125 M 15.855469 2.507812 C 13.851562 2.269531 12.039062 2.136719 10.035156 2.136719 C 7.953125 2.136719 6.140625 2.242188 4.164062 2.507812 C 3.550781 2.589844 3.203125 2.9375 3.203125 3.46875 L 3.203125 15.1875 C 3.203125 15.5625 3.496094 15.828125 3.738281 15.882812 L 4.484375 16.015625 L 4.484375 17.589844 C 4.484375 17.777344 4.644531 17.882812 4.832031 17.882812 L 6.03125 17.882812 C 6.191406 17.882812 6.351562 17.777344 6.351562 17.589844 L 6.351562 16.203125 C 7.3125 16.308594 8.648438 16.363281 9.984375 16.363281 C 11.316406 16.363281 12.707031 16.308594 13.667969 16.203125 L 13.667969 17.589844 C 13.667969 17.777344 13.824219 17.882812 13.988281 17.882812 L 15.1875 17.882812 C 15.375 17.882812 15.535156 17.777344 15.535156 17.589844 L 15.535156 16.015625 L 16.28125 15.882812 C 16.574219 15.828125 16.816406 15.585938 16.816406 15.1875 L 16.816406 3.46875 C 16.816406 2.9375 16.46875 2.589844 15.855469 2.507812 "/>
</g>
</svg>
