<?xml version="1.0" encoding="UTF-8"?>
<svg xmlns="http://www.w3.org/2000/svg" xmlns:xlink="http://www.w3.org/1999/xlink" width="26pt" height="26pt" viewBox="0 0 26 26" version="1.1">
<g id="surface1">
<path style=" stroke:none;fill-rule:nonzero;fill:rgb(0%,47.843137%,78.823529%);fill-opacity:1;" d="M 0 22.761719 C 0 24.566406 1.457031 26.023438 3.261719 26.023438 L 22.796875 26.023438 C 24.566406 26.023438 26.023438 24.566406 26.023438 22.761719 L 26.023438 3.226562 C 26.023438 1.457031 24.566406 0 22.796875 0 L 3.261719 0 C 1.457031 0 0 1.457031 0 3.226562 Z M 0 22.761719 "/>
<path style=" stroke:none;fill-rule:nonzero;fill:rgb(100%,100%,100%);fill-opacity:1;" d="M 20.472656 14.988281 L 20.472656 15.058594 C 20.472656 15.476562 20.296875 15.71875 19.777344 15.789062 C 17.90625 16.101562 15.476562 16.414062 13.082031 16.414062 C 10.582031 16.414062 8.222656 16.136719 6.316406 15.71875 C 5.796875 15.613281 5.621094 15.40625 5.621094 14.988281 L 5.621094 5.480469 C 5.621094 5.066406 5.796875 4.753906 6.316406 4.753906 L 19.777344 4.824219 C 20.296875 4.824219 20.472656 5.136719 20.472656 5.550781 Z M 18.910156 19.257812 C 18.425781 19.222656 18.042969 18.839844 18.042969 18.390625 C 18.078125 17.9375 18.460938 17.558594 18.910156 17.558594 C 19.363281 17.558594 19.742188 17.9375 19.742188 18.390625 C 19.742188 18.875 19.363281 19.257812 18.910156 19.257812 M 7.007812 19.257812 C 6.523438 19.222656 6.140625 18.839844 6.140625 18.390625 C 6.175781 17.9375 6.558594 17.558594 7.007812 17.558594 C 7.460938 17.558594 7.839844 17.9375 7.839844 18.390625 C 7.839844 18.875 7.460938 19.257812 7.007812 19.257812 M 20.609375 3.261719 C 18.007812 2.949219 15.648438 2.777344 13.046875 2.777344 C 10.339844 2.777344 7.980469 2.914062 5.414062 3.261719 C 4.613281 3.367188 4.164062 3.816406 4.164062 4.511719 L 4.164062 19.742188 C 4.164062 20.230469 4.546875 20.578125 4.859375 20.644531 L 5.828125 20.820312 L 5.828125 22.867188 C 5.828125 23.109375 6.039062 23.246094 6.28125 23.246094 L 7.839844 23.246094 C 8.050781 23.246094 8.257812 23.109375 8.257812 22.867188 L 8.257812 21.0625 C 9.507812 21.203125 11.242188 21.269531 12.976562 21.269531 C 14.710938 21.269531 16.515625 21.203125 17.765625 21.0625 L 17.765625 22.867188 C 17.765625 23.109375 17.972656 23.246094 18.183594 23.246094 L 19.742188 23.246094 C 19.988281 23.246094 20.195312 23.109375 20.195312 22.867188 L 20.195312 20.820312 L 21.167969 20.644531 C 21.546875 20.578125 21.859375 20.265625 21.859375 19.742188 L 21.859375 4.511719 C 21.859375 3.816406 21.410156 3.367188 20.609375 3.261719 "/>
</g>
</svg>
