<?xml version="1.0" encoding="UTF-8"?>
<svg xmlns="http://www.w3.org/2000/svg" xmlns:xlink="http://www.w3.org/1999/xlink" width="22pt" height="22pt" viewBox="0 0 22 22" version="1.1">
<g id="surface1">
<path style=" stroke:none;fill-rule:nonzero;fill:rgb(0%,47.843137%,78.823529%);fill-opacity:1;" d="M 0 19.261719 C 0 20.785156 1.234375 22.019531 2.757812 22.019531 L 19.289062 22.019531 C 20.785156 22.019531 22.019531 20.785156 22.019531 19.261719 L 22.019531 2.730469 C 22.019531 1.234375 20.785156 0 19.289062 0 L 2.757812 0 C 1.234375 0 0 1.234375 0 2.730469 Z M 0 19.261719 "/>
<path style=" stroke:none;fill-rule:nonzero;fill:rgb(100%,100%,100%);fill-opacity:1;" d="M 17.324219 12.683594 L 17.324219 12.742188 C 17.324219 13.09375 17.175781 13.300781 16.734375 13.359375 C 15.148438 13.625 13.09375 13.886719 11.070312 13.886719 C 8.957031 13.886719 6.957031 13.652344 5.34375 13.300781 C 4.902344 13.210938 4.757812 13.035156 4.757812 12.683594 L 4.757812 4.640625 C 4.757812 4.285156 4.902344 4.023438 5.34375 4.023438 L 16.734375 4.082031 C 17.175781 4.082031 17.324219 4.34375 17.324219 4.699219 Z M 16 16.296875 C 15.589844 16.265625 15.265625 15.941406 15.265625 15.5625 C 15.296875 15.179688 15.621094 14.855469 16 14.855469 C 16.382812 14.855469 16.707031 15.179688 16.707031 15.5625 C 16.707031 15.972656 16.382812 16.296875 16 16.296875 M 5.929688 16.296875 C 5.519531 16.265625 5.195312 15.941406 5.195312 15.5625 C 5.226562 15.179688 5.550781 14.855469 5.929688 14.855469 C 6.3125 14.855469 6.636719 15.179688 6.636719 15.5625 C 6.636719 15.972656 6.3125 16.296875 5.929688 16.296875 M 17.441406 2.757812 C 15.238281 2.496094 13.242188 2.347656 11.039062 2.347656 C 8.75 2.347656 6.753906 2.464844 4.578125 2.757812 C 3.90625 2.847656 3.523438 3.230469 3.523438 3.816406 L 3.523438 16.707031 C 3.523438 17.117188 3.847656 17.410156 4.109375 17.46875 L 4.933594 17.617188 L 4.933594 19.347656 C 4.933594 19.554688 5.109375 19.671875 5.3125 19.671875 L 6.636719 19.671875 C 6.8125 19.671875 6.988281 19.554688 6.988281 19.347656 L 6.988281 17.820312 C 8.042969 17.941406 9.511719 17.996094 10.980469 17.996094 C 12.449219 17.996094 13.976562 17.941406 15.03125 17.820312 L 15.03125 19.347656 C 15.03125 19.554688 15.207031 19.671875 15.386719 19.671875 L 16.707031 19.671875 C 16.910156 19.671875 17.085938 19.554688 17.085938 19.347656 L 17.085938 17.617188 L 17.910156 17.46875 C 18.234375 17.410156 18.496094 17.148438 18.496094 16.707031 L 18.496094 3.816406 C 18.496094 3.230469 18.117188 2.847656 17.441406 2.757812 "/>
</g>
</svg>
