<?xml version="1.0" encoding="UTF-8"?>
<svg xmlns="http://www.w3.org/2000/svg" xmlns:xlink="http://www.w3.org/1999/xlink" width="26pt" height="26pt" viewBox="0 0 26 26" version="1.1">
<g id="surface1">
<path style=" stroke:none;fill-rule:nonzero;fill:rgb(100%,38.823529%,9.803922%);fill-opacity:1;" d="M 0 22.769531 C 0 24.558594 1.464844 26.023438 3.253906 26.023438 L 22.769531 26.023438 C 24.558594 26.023438 26.023438 24.558594 26.023438 22.769531 L 26.023438 3.253906 C 26.023438 1.464844 24.558594 0 22.769531 0 L 3.253906 0 C 1.464844 0 0 1.464844 0 3.253906 Z M 0 22.769531 "/>
<path style=" stroke:none;fill-rule:nonzero;fill:rgb(100%,100%,100%);fill-opacity:1;" d="M 15.1875 22.769531 L 18.878906 10.105469 L 18.878906 9.550781 C 18.878906 9.515625 18.925781 9.476562 18.984375 9.496094 L 18.984375 22.769531 L 23.039062 22.769531 L 23.039062 3.253906 L 17.074219 3.253906 L 13.324219 16.597656 L 13.253906 17.492188 C 13.21875 17.511719 13.207031 17.511719 13.171875 17.492188 L 13.066406 16.597656 L 9.316406 3.253906 L 3.328125 3.253906 L 3.328125 22.769531 L 7.421875 22.769531 L 7.421875 9.496094 C 7.46875 9.476562 7.527344 9.515625 7.527344 9.550781 L 7.527344 10.105469 L 11.191406 22.769531 L 15.1875 22.769531 "/>
</g>
</svg>
