<?xml version="1.0" encoding="UTF-8"?>
<svg xmlns="http://www.w3.org/2000/svg" xmlns:xlink="http://www.w3.org/1999/xlink" width="22pt" height="22pt" viewBox="0 0 22 22" version="1.1">
<g id="surface1">
<path style=" stroke:none;fill-rule:nonzero;fill:rgb(100%,38.823529%,9.803922%);fill-opacity:1;" d="M 0 19.269531 C 0 20.78125 1.238281 22.019531 2.753906 22.019531 L 19.269531 22.019531 C 20.78125 22.019531 22.019531 20.78125 22.019531 19.269531 L 22.019531 2.753906 C 22.019531 1.238281 20.78125 0 19.269531 0 L 2.753906 0 C 1.238281 0 0 1.238281 0 2.753906 Z M 0 19.269531 "/>
<path style=" stroke:none;fill-rule:nonzero;fill:rgb(100%,100%,100%);fill-opacity:1;" d="M 12.851562 19.269531 L 15.972656 8.550781 L 15.972656 8.082031 C 15.972656 8.050781 16.011719 8.019531 16.0625 8.035156 L 16.0625 19.269531 L 19.496094 19.269531 L 19.496094 2.753906 L 14.445312 2.753906 L 11.277344 14.042969 L 11.214844 14.800781 C 11.1875 14.816406 11.175781 14.816406 11.144531 14.800781 L 11.054688 14.042969 L 7.882812 2.753906 L 2.816406 2.753906 L 2.816406 19.269531 L 6.277344 19.269531 L 6.277344 8.035156 C 6.316406 8.019531 6.367188 8.050781 6.367188 8.082031 L 6.367188 8.550781 L 9.46875 19.269531 L 12.851562 19.269531 "/>
</g>
</svg>
