<?xml version="1.0" encoding="UTF-8"?>
<svg xmlns="http://www.w3.org/2000/svg" xmlns:xlink="http://www.w3.org/1999/xlink" width="20pt" height="20pt" viewBox="0 0 20 20" version="1.1">
<g id="surface1">
<path style=" stroke:none;fill-rule:nonzero;fill:rgb(100%,38.823529%,9.803922%);fill-opacity:1;" d="M 0 17.515625 C 0 18.890625 1.125 20.019531 2.503906 20.019531 L 17.515625 20.019531 C 18.894531 20.019531 20.019531 18.890625 20.019531 17.515625 L 20.019531 2.503906 C 20.019531 1.125 18.894531 0 17.515625 0 L 2.503906 0 C 1.125 0 0 1.125 0 2.503906 Z M 0 17.515625 "/>
<path style=" stroke:none;fill-rule:nonzero;fill:rgb(100%,100%,100%);fill-opacity:1;" d="M 11.683594 17.515625 L 14.523438 7.773438 L 14.523438 7.347656 C 14.523438 7.320312 14.558594 7.292969 14.601562 7.304688 L 14.601562 17.515625 L 17.722656 17.515625 L 17.722656 2.503906 L 13.132812 2.503906 L 10.25 12.769531 L 10.195312 13.457031 C 10.167969 13.46875 10.160156 13.46875 10.132812 13.457031 L 10.050781 12.769531 L 7.167969 2.503906 L 2.5625 2.503906 L 2.5625 17.515625 L 5.707031 17.515625 L 5.707031 7.304688 C 5.742188 7.292969 5.789062 7.320312 5.789062 7.347656 L 5.789062 7.773438 L 8.609375 17.515625 L 11.683594 17.515625 "/>
</g>
</svg>
