<?xml version="1.0" encoding="UTF-8"?>
<svg xmlns="http://www.w3.org/2000/svg" xmlns:xlink="http://www.w3.org/1999/xlink" width="26pt" height="26pt" viewBox="0 0 26 26" version="1.1">
<g id="surface1">
<path style=" stroke:none;fill-rule:nonzero;fill:rgb(0%,59.607843%,37.254902%);fill-opacity:1;" d="M 0 22.769531 C 0 24.558594 1.464844 26.023438 3.253906 26.023438 L 22.769531 26.023438 C 24.558594 26.023438 26.023438 24.558594 26.023438 22.769531 L 26.023438 3.253906 C 26.023438 1.464844 24.558594 0 22.769531 0 L 3.253906 0 C 1.464844 0 0 1.464844 0 3.253906 Z M 0 22.769531 "/>
<path style=" stroke:none;fill-rule:nonzero;fill:rgb(100%,100%,100%);fill-opacity:1;" d="M 17.140625 18.808594 C 16.722656 18.808594 16.414062 18.496094 16.414062 18.078125 C 16.414062 17.625 16.722656 17.28125 17.140625 17.28125 C 17.59375 17.28125 17.941406 17.625 17.941406 18.078125 C 17.941406 18.496094 17.59375 18.808594 17.140625 18.808594 M 8.257812 15.890625 L 8.257812 7.980469 L 17.730469 7.980469 L 17.730469 15.890625 C 16.480469 16.273438 14.710938 16.480469 13.011719 16.480469 C 11.3125 16.480469 9.542969 16.238281 8.257812 15.890625 M 8.953125 18.808594 C 8.535156 18.808594 8.222656 18.496094 8.222656 18.078125 C 8.222656 17.625 8.535156 17.28125 8.953125 17.28125 C 9.402344 17.28125 9.75 17.625 9.75 18.078125 C 9.75 18.496094 9.402344 18.808594 8.953125 18.808594 M 18.738281 6.871094 L 18.183594 5.550781 C 18.007812 5.167969 17.800781 4.960938 17.382812 4.855469 C 15.996094 4.511719 14.988281 4.371094 13.671875 4.335938 L 13.671875 3.191406 L 16.101562 3.191406 C 16.414062 3.191406 16.691406 2.914062 16.691406 2.566406 C 16.691406 2.183594 16.414062 1.910156 16.101562 1.910156 L 9.957031 1.910156 C 9.578125 1.910156 9.300781 2.183594 9.300781 2.566406 C 9.300781 2.914062 9.578125 3.191406 9.957031 3.191406 L 12.351562 3.191406 L 12.351562 4.335938 C 11 4.371094 9.925781 4.511719 8.640625 4.855469 C 8.1875 4.996094 7.945312 5.167969 7.773438 5.550781 L 7.21875 6.871094 C 7.042969 7.285156 7.042969 7.839844 7.042969 8.257812 L 7.042969 19.976562 C 7.042969 20.566406 7.425781 20.914062 8.015625 21.019531 C 9.785156 21.367188 11.3125 21.503906 13.011719 21.503906 C 14.644531 21.503906 16.203125 21.367188 18.007812 21.019531 C 18.5625 20.914062 18.980469 20.566406 18.980469 19.976562 L 18.980469 8.257812 C 18.980469 7.839844 18.910156 7.285156 18.738281 6.871094 M 17.523438 23.109375 C 17.835938 23.109375 18.148438 23.386719 18.148438 23.699219 C 18.148438 24.117188 17.835938 24.359375 17.523438 24.359375 L 8.5 24.359375 C 8.15625 24.359375 7.910156 24.117188 7.910156 23.699219 C 7.910156 23.386719 8.15625 23.109375 8.5 23.109375 L 9.472656 23.109375 L 9.472656 22.136719 L 10.6875 22.277344 L 10.6875 23.109375 L 15.335938 23.109375 L 15.335938 22.277344 L 16.550781 22.136719 L 16.550781 23.109375 Z M 17.523438 23.109375 "/>
</g>
</svg>
