<?xml version="1.0" encoding="UTF-8"?>
<svg xmlns="http://www.w3.org/2000/svg" xmlns:xlink="http://www.w3.org/1999/xlink" width="20pt" height="20pt" viewBox="0 0 20 20" version="1.1">
<g id="surface1">
<path style=" stroke:none;fill-rule:nonzero;fill:rgb(0%,59.607843%,37.254902%);fill-opacity:1;" d="M 0 17.515625 C 0 18.890625 1.125 20.019531 2.503906 20.019531 L 17.515625 20.019531 C 18.894531 20.019531 20.019531 18.890625 20.019531 17.515625 L 20.019531 2.503906 C 20.019531 1.125 18.894531 0 17.515625 0 L 2.503906 0 C 1.125 0 0 1.125 0 2.503906 Z M 0 17.515625 "/>
<path style=" stroke:none;fill-rule:nonzero;fill:rgb(100%,100%,100%);fill-opacity:1;" d="M 13.183594 14.46875 C 12.863281 14.46875 12.625 14.226562 12.625 13.90625 C 12.625 13.558594 12.863281 13.292969 13.183594 13.292969 C 13.53125 13.292969 13.800781 13.558594 13.800781 13.90625 C 13.800781 14.226562 13.53125 14.46875 13.183594 14.46875 M 6.351562 12.226562 L 6.351562 6.136719 L 13.640625 6.136719 L 13.640625 12.226562 C 12.679688 12.519531 11.316406 12.679688 10.007812 12.679688 C 8.703125 12.679688 7.339844 12.492188 6.351562 12.226562 M 6.886719 14.46875 C 6.566406 14.46875 6.324219 14.226562 6.324219 13.90625 C 6.324219 13.558594 6.566406 13.292969 6.886719 13.292969 C 7.234375 13.292969 7.5 13.558594 7.5 13.90625 C 7.5 14.226562 7.234375 14.46875 6.886719 14.46875 M 14.414062 5.285156 L 13.984375 4.269531 C 13.851562 3.976562 13.691406 3.816406 13.371094 3.734375 C 12.304688 3.46875 11.53125 3.363281 10.515625 3.335938 L 10.515625 2.453125 L 12.382812 2.453125 C 12.625 2.453125 12.839844 2.242188 12.839844 1.976562 C 12.839844 1.679688 12.625 1.46875 12.382812 1.46875 L 7.660156 1.46875 C 7.367188 1.46875 7.152344 1.679688 7.152344 1.976562 C 7.152344 2.242188 7.367188 2.453125 7.660156 2.453125 L 9.5 2.453125 L 9.5 3.335938 C 8.460938 3.363281 7.632812 3.46875 6.644531 3.734375 C 6.300781 3.84375 6.113281 3.976562 5.980469 4.269531 L 5.550781 5.285156 C 5.417969 5.605469 5.417969 6.03125 5.417969 6.351562 L 5.417969 15.367188 C 5.417969 15.820312 5.710938 16.089844 6.164062 16.167969 C 7.527344 16.433594 8.703125 16.542969 10.007812 16.542969 C 11.261719 16.542969 12.464844 16.433594 13.851562 16.167969 C 14.28125 16.089844 14.601562 15.820312 14.601562 15.367188 L 14.601562 6.351562 C 14.601562 6.03125 14.546875 5.605469 14.414062 5.285156 M 13.480469 17.777344 C 13.71875 17.777344 13.960938 17.992188 13.960938 18.230469 C 13.960938 18.550781 13.71875 18.738281 13.480469 18.738281 L 6.539062 18.738281 C 6.273438 18.738281 6.085938 18.550781 6.085938 18.230469 C 6.085938 17.992188 6.273438 17.777344 6.539062 17.777344 L 7.285156 17.777344 L 7.285156 17.027344 L 8.222656 17.136719 L 8.222656 17.777344 L 11.796875 17.777344 L 11.796875 17.136719 L 12.730469 17.027344 L 12.730469 17.777344 Z M 13.480469 17.777344 "/>
</g>
</svg>
