<?xml version="1.0" encoding="UTF-8"?>
<svg xmlns="http://www.w3.org/2000/svg" xmlns:xlink="http://www.w3.org/1999/xlink" width="22pt" height="22pt" viewBox="0 0 22 22" version="1.1">
<g id="surface1">
<path style=" stroke:none;fill-rule:nonzero;fill:rgb(0%,59.607843%,37.254902%);fill-opacity:1;" d="M 0 19.269531 C 0 20.78125 1.238281 22.019531 2.753906 22.019531 L 19.269531 22.019531 C 20.78125 22.019531 22.019531 20.78125 22.019531 19.269531 L 22.019531 2.753906 C 22.019531 1.238281 20.78125 0 19.269531 0 L 2.753906 0 C 1.238281 0 0 1.238281 0 2.753906 Z M 0 19.269531 "/>
<path style=" stroke:none;fill-rule:nonzero;fill:rgb(100%,100%,100%);fill-opacity:1;" d="M 14.503906 15.914062 C 14.152344 15.914062 13.886719 15.648438 13.886719 15.296875 C 13.886719 14.914062 14.152344 14.621094 14.503906 14.621094 C 14.886719 14.621094 15.179688 14.914062 15.179688 15.296875 C 15.179688 15.648438 14.886719 15.914062 14.503906 15.914062 M 6.988281 13.445312 L 6.988281 6.753906 L 15.003906 6.753906 L 15.003906 13.445312 C 13.945312 13.769531 12.449219 13.945312 11.011719 13.945312 C 9.570312 13.945312 8.074219 13.742188 6.988281 13.445312 M 7.574219 15.914062 C 7.222656 15.914062 6.957031 15.648438 6.957031 15.296875 C 6.957031 14.914062 7.222656 14.621094 7.574219 14.621094 C 7.957031 14.621094 8.25 14.914062 8.25 15.296875 C 8.25 15.648438 7.957031 15.914062 7.574219 15.914062 M 15.855469 5.8125 L 15.382812 4.695312 C 15.238281 4.375 15.0625 4.199219 14.710938 4.109375 C 13.535156 3.816406 12.683594 3.699219 11.566406 3.667969 L 11.566406 2.699219 L 13.625 2.699219 C 13.886719 2.699219 14.121094 2.464844 14.121094 2.171875 C 14.121094 1.847656 13.886719 1.613281 13.625 1.613281 L 8.425781 1.613281 C 8.105469 1.613281 7.867188 1.847656 7.867188 2.171875 C 7.867188 2.464844 8.105469 2.699219 8.425781 2.699219 L 10.453125 2.699219 L 10.453125 3.667969 C 9.308594 3.699219 8.398438 3.816406 7.3125 4.109375 C 6.929688 4.226562 6.722656 4.375 6.578125 4.695312 L 6.105469 5.8125 C 5.960938 6.164062 5.960938 6.636719 5.960938 6.988281 L 5.960938 16.90625 C 5.960938 17.402344 6.28125 17.695312 6.78125 17.785156 C 8.28125 18.078125 9.570312 18.195312 11.011719 18.195312 C 12.390625 18.195312 13.710938 18.078125 15.238281 17.785156 C 15.707031 17.695312 16.058594 17.402344 16.058594 16.90625 L 16.058594 6.988281 C 16.058594 6.636719 16 6.164062 15.855469 5.8125 M 14.828125 19.554688 C 15.089844 19.554688 15.355469 19.789062 15.355469 20.054688 C 15.355469 20.40625 15.089844 20.609375 14.828125 20.609375 L 7.191406 20.609375 C 6.898438 20.609375 6.695312 20.40625 6.695312 20.054688 C 6.695312 19.789062 6.898438 19.554688 7.191406 19.554688 L 8.015625 19.554688 L 8.015625 18.730469 L 9.042969 18.847656 L 9.042969 19.554688 L 12.976562 19.554688 L 12.976562 18.847656 L 14.003906 18.730469 L 14.003906 19.554688 Z M 14.828125 19.554688 "/>
</g>
</svg>
